<svg width="506" height="504" viewBox="0 0 506 504" fill="none" xmlns="http://www.w3.org/2000/svg">
<path d="M490.438 245.538C430.042 388.777 411.907 503.413 271.306 503.413C130.704 503.413 16.728 389.437 16.728 248.835C16.728 108.234 131.309 51.6577 265.948 11.2111C449.826 -44.0184 545.695 116.065 490.438 245.538Z" fill="#FC9F5B"/>
<path d="M77.8919 159.122C77.8919 159.122 46.4853 145.933 48.7659 141.344C50.497 137.882 62.3397 144.174 68.0275 147.444C69.7586 148.433 71.9843 147.993 73.1933 146.4C74.2374 145.026 76.0784 144.476 77.6996 145.081L89.3225 149.23L80.6122 165.716L77.8919 159.122Z" fill="white"/>
<path d="M58.5751 183.302L48.1063 194.815C45.2761 197.92 41.5392 200.063 37.4176 200.915L10.1875 206.383L0.845215 158.764L17.9636 155.522C26.7564 153.819 35.714 157.446 40.8248 164.782C43.4076 168.491 47.8865 170.415 52.3653 169.728L57.1463 169.014L58.5751 183.302Z" fill="white"/>
<path d="M379.098 414.853C372.339 410.045 362.337 404.989 349.368 399.796C322.742 389.135 286.555 379.133 247.482 371.632C208.437 364.103 171.177 359.981 142.518 359.981C142.491 359.981 142.436 359.981 142.408 359.981C128.45 359.981 117.267 360.97 109.216 362.921C100.67 364.982 95.9442 368.114 95.1474 372.181C94.378 376.248 97.6203 380.891 104.792 386.002C111.551 390.811 121.553 395.867 134.522 401.06C161.148 411.721 197.336 421.723 236.408 429.224C275.454 436.753 312.713 440.875 341.372 440.875C341.399 440.875 341.427 440.875 341.482 440.875C355.44 440.875 366.624 439.885 374.675 437.934C383.22 435.874 387.946 432.741 388.743 428.675C389.512 424.608 386.27 419.964 379.098 414.853Z" fill="#1A1A1A"/>
<path d="M144.112 403.863C144.112 403.863 161.203 412.463 229.842 426.366C249.598 430.378 277.68 435.104 306.915 437.879C306.915 437.879 302.931 410.54 305.129 387.459L307.602 377.622L314.197 356.959L330.958 320.139L335.629 316.32C335.629 316.32 348.928 322.337 355.331 322.887C355.331 322.887 366.679 308.956 370.361 288.458C374.015 267.932 372.064 249.769 372.064 249.769L347.829 232.047C347.829 232.047 324.666 213.17 305.981 205.311C287.297 197.453 257.346 191.572 223.082 197.975C184.834 205.146 157.136 220.506 141.557 232.788C125.977 245.071 117.734 255.32 117.734 255.32C117.734 255.32 120.482 276.945 126.884 292.332C133.286 307.719 146.393 323.711 146.393 323.711L171.04 309.917C171.04 309.917 170.133 330.058 168.1 341.049C166.067 352.04 159.527 386.744 144.112 403.863Z" fill="white"/>
<path d="M306.915 377.127C306.86 377.127 306.805 377.127 306.75 377.1C304.744 376.715 302.958 375.698 301.749 374.214C301.062 373.363 300.513 372.401 300.018 371.467C299.194 369.983 298.452 368.582 297.133 367.867C295.951 367.208 294.385 367.235 293.039 367.235C292.489 367.235 291.583 367.318 290.511 367.4C284.136 367.922 277.816 368.169 276.635 364.982C275.673 362.372 278.833 358.662 285.977 353.964C289.632 351.546 301.584 345.665 307.794 347.974C309.58 348.633 310.762 349.924 311.284 351.765C311.641 353.057 311.394 354.321 311.174 355.557C310.954 356.629 310.762 357.673 311.009 358.58C311.201 359.267 311.614 359.899 312.438 360.668C312.768 360.97 312.768 361.492 312.465 361.822C312.163 362.152 311.641 362.152 311.311 361.85C310.624 361.19 309.8 360.283 309.443 359.019C309.086 357.728 309.333 356.464 309.58 355.255C309.8 354.156 309.992 353.139 309.745 352.233C309.36 350.914 308.564 350.034 307.272 349.54C302.024 347.589 290.758 352.837 286.939 355.365C279.795 360.064 277.761 363.141 278.256 364.46C279.08 366.741 287.049 366.081 290.428 365.806C291.555 365.724 292.462 365.642 293.094 365.642C294.578 365.642 296.419 365.614 297.985 366.466C299.716 367.428 300.65 369.104 301.529 370.725C302.024 371.632 302.491 372.483 303.096 373.225C304.057 374.407 305.486 375.204 307.135 375.533C307.574 375.616 307.877 376.055 307.794 376.495C307.657 376.852 307.327 377.127 306.915 377.127Z" fill="#FC9F5B"/>
<path d="M210.939 398.779C210.884 398.779 210.829 398.779 210.774 398.752C210.334 398.669 210.032 398.23 210.114 397.79C210.746 394.575 211.708 391.333 212.67 388.2C214.868 380.836 216.956 373.912 215.225 366.905C215.033 366.191 214.786 365.367 214.263 364.982C214.044 364.817 213.439 364.35 212.12 365.037C211.323 365.449 210.417 366.246 209.675 367.18C207.449 369.983 205.333 372.895 203.3 375.863C202.228 378.006 200.909 380.04 199.371 381.853C199.096 382.183 198.601 382.238 198.244 381.99C197.887 381.743 197.805 381.249 198.024 380.891C199.261 378.913 200.525 376.962 201.844 375.011C202.805 373.06 203.547 371.027 204.042 368.911C204.344 367.592 204.619 366.081 204.152 364.735C203.767 363.663 202.668 362.619 201.514 362.784C200.745 362.894 200.058 363.498 199.398 364.103C194.068 369.021 189.726 374.819 186.511 381.331C186.319 381.716 185.879 381.881 185.467 381.743C185.083 381.578 184.863 381.166 184.973 380.754C185.357 379.463 185.742 378.144 185.605 376.852C185.495 375.836 184.89 374.599 183.791 374.269C182.802 373.995 181.593 374.462 180.164 375.726C177.279 378.254 175.136 381.551 173.927 385.205C173.789 385.645 173.322 385.865 172.883 385.727C172.443 385.59 172.223 385.123 172.36 384.683C173.652 380.754 175.96 377.237 179.065 374.489C180.933 372.841 182.665 372.236 184.231 372.703C186.017 373.225 186.978 375.011 187.198 376.577C190.193 371.522 193.903 366.96 198.244 362.949C199.068 362.207 200.03 361.382 201.267 361.218C203.355 360.915 205.113 362.564 205.691 364.268C206.295 365.999 205.993 367.812 205.636 369.351C205.581 369.543 205.553 369.736 205.498 369.955C206.432 368.691 207.394 367.427 208.356 366.218C211.159 362.646 213.824 362.646 215.225 363.718C216.187 364.432 216.544 365.559 216.791 366.576C218.632 374.022 216.379 381.496 214.209 388.75C213.274 391.855 212.313 395.042 211.708 398.202C211.681 398.504 211.323 398.779 210.939 398.779Z" fill="#FC9F5B"/>
<path d="M149.086 257.601C146.888 257.601 144.607 256.501 143.178 254.825C140.98 252.242 140.348 248.78 140.046 245.73C139.606 241.361 139.579 236.938 140.046 232.569C140.101 232.129 140.485 231.772 140.952 231.827C141.392 231.882 141.722 232.266 141.694 232.733C141.255 236.992 141.255 241.306 141.694 245.565C141.997 248.368 142.546 251.528 144.442 253.754C146.118 255.732 149.47 256.776 151.559 255.128C152.438 254.441 153.015 253.369 153.427 252.435C155.46 247.983 155.9 242.818 154.801 238.037C154.087 237.185 153.867 236.058 153.647 235.042C153.565 234.629 153.482 234.245 153.372 233.86C153.152 233.393 152.933 232.926 152.658 232.459C152.465 232.074 152.575 231.634 152.905 231.387C153.262 231.14 153.729 231.222 154.004 231.524C154.444 232.047 154.719 232.651 154.911 233.256C155.488 234.52 155.955 235.866 156.285 237.212C156.312 237.24 156.34 237.267 156.367 237.295C157.027 237.789 158.098 237.707 158.895 237.13C159.829 236.443 160.242 235.289 160.434 234.437C160.874 232.486 160.434 230.288 159.225 228.42C158.016 226.551 156.202 225.26 154.224 224.847C153.784 224.765 153.482 224.325 153.592 223.886C153.674 223.446 154.114 223.144 154.554 223.254C156.944 223.748 159.142 225.315 160.599 227.54C162.055 229.766 162.577 232.404 162.055 234.794C161.808 235.921 161.231 237.46 159.884 238.476C158.95 239.191 157.741 239.438 156.697 239.218C157.466 243.917 156.889 248.835 154.911 253.149C154.416 254.221 153.729 255.54 152.548 256.474C151.531 257.243 150.322 257.601 149.086 257.601Z" fill="#FC9F5B"/>
<path d="M187.142 318.49C186.867 318.49 186.593 318.49 186.345 318.49C180.987 318.435 175.602 317.968 170.326 317.144C169.886 317.062 169.557 316.649 169.639 316.21C169.722 315.77 170.134 315.44 170.573 315.523C175.767 316.347 181.07 316.787 186.345 316.842C188.901 316.869 191.813 316.814 194.314 315.688C196.43 314.726 198.573 312.61 198.6 310C198.6 308.571 197.941 307.032 196.759 305.631C194.369 302.828 190.467 301.399 186.812 301.976C186.373 302.031 185.961 301.757 185.878 301.317C185.796 300.877 186.071 300.465 186.51 300.355C190.44 299.449 194.534 298.487 198.326 297.003C199.837 296.399 201.54 295.629 202.777 294.393C204.013 293.156 204.618 291.508 204.343 290.106C203.821 287.468 200.524 286.177 199.15 285.737C191.319 283.319 182.801 285.215 175.272 286.919C174.832 287.029 174.393 286.727 174.283 286.287C174.173 285.847 174.475 285.408 174.915 285.298C182.251 283.649 191.374 281.616 199.644 284.144C201.733 284.776 205.305 286.369 205.964 289.749C206.349 291.672 205.58 293.871 203.958 295.519C202.502 296.976 200.606 297.855 198.93 298.514C196.677 299.394 194.341 300.108 192.006 300.713C194.314 301.399 196.457 302.718 198.023 304.559C199.48 306.263 200.276 308.186 200.249 310C200.249 312.418 198.6 315.578 195.001 317.199C192.473 318.326 189.67 318.49 187.142 318.49Z" fill="#FC9F5B"/>
<path d="M319.693 334.702C319.638 334.702 319.61 334.702 319.555 334.702C308.097 332.861 300.733 324.92 296.584 318.545C291.308 310.467 289.22 302.306 288.808 298.762C288.561 296.591 288.561 292.662 291.391 290.711C293.012 289.584 295.32 289.419 297.463 290.244C299.387 290.986 300.953 292.387 302.217 293.651C303.948 295.354 305.514 297.223 307.025 299.119C306.723 296.728 307.08 294.228 308.125 292.057C308.812 290.628 310.075 288.76 312.219 287.826C315.296 286.507 318.786 287.826 320.902 289.749C323.182 291.81 324.501 294.64 325.573 297.14C327.661 302.059 329.42 307.17 330.793 312.335C330.903 312.775 330.656 313.215 330.216 313.352C329.777 313.462 329.337 313.215 329.2 312.775C327.853 307.692 326.15 302.636 324.061 297.8C323.072 295.464 321.836 292.799 319.802 290.985C318.071 289.419 315.269 288.32 312.878 289.364C311.587 289.941 310.405 291.15 309.636 292.799C308.042 296.124 308.289 300.273 310.295 303.378C310.543 303.762 310.433 304.257 310.075 304.504C309.718 304.752 309.224 304.669 308.949 304.312C306.531 301.07 304.03 297.717 301.118 294.832C299.964 293.706 298.562 292.442 296.941 291.81C295.293 291.178 293.562 291.288 292.408 292.085C290.209 293.623 290.347 297.14 290.512 298.597C291.034 303.021 293.589 310.879 298.04 317.666C302.025 323.738 309.031 331.35 319.885 333.081C320.325 333.163 320.654 333.575 320.572 334.015C320.462 334.427 320.105 334.702 319.693 334.702Z" fill="#FC9F5B"/>
<path d="M210.993 237.487C210.334 237.487 209.702 237.35 209.125 237.102C207.256 236.278 206.075 234.245 205.718 231.222C205.415 228.749 205.553 226.249 206.047 223.803C205.635 224.243 205.223 224.655 204.783 225.067C204.316 225.507 203.739 226.029 202.97 226.276C201.211 226.853 199.343 225.672 198.574 224.188C197.804 222.704 197.859 221.001 197.996 219.682C198.683 212.895 202.201 206.74 205.305 201.327C205.525 200.942 206.047 200.805 206.432 201.025C206.817 201.244 206.954 201.767 206.734 202.151C203.712 207.427 200.277 213.444 199.645 219.847C199.535 220.946 199.48 222.347 200.057 223.419C200.497 224.27 201.569 224.985 202.475 224.683C202.915 224.545 203.327 224.188 203.657 223.858C205.47 222.155 206.954 220.204 208.108 218.006C208.108 217.978 208.136 217.951 208.136 217.923C208.355 217.511 208.85 217.374 209.235 217.566C209.647 217.786 209.784 218.28 209.592 218.665C209.592 218.693 209.564 218.72 209.564 218.748C207.614 222.484 206.844 226.826 207.339 231.002C207.531 232.679 208.136 234.849 209.784 235.591C211.131 236.196 212.752 235.591 213.741 234.739C214.978 233.695 215.774 232.129 216.406 230.728C218.44 226.331 219.978 221.633 220.94 216.769C220.995 216.11 221.132 215.478 221.297 214.846C221.407 214.434 221.847 214.159 222.259 214.269C222.699 214.351 222.973 214.791 222.891 215.203C222.781 215.807 222.671 216.412 222.561 217.016C222.369 219.242 222.946 221.55 224.21 223.419C225.391 225.122 227.04 226.221 228.689 226.359C230.75 226.524 233.003 225.095 234.157 222.924C235.118 221.111 235.503 218.857 235.366 215.753C235.091 209.24 232.92 202.701 229.266 197.343C229.018 196.958 229.101 196.463 229.486 196.189C229.87 195.941 230.365 196.024 230.64 196.408C234.486 202.041 236.74 208.883 237.014 215.698C237.097 217.841 237.042 221.001 235.613 223.721C234.129 226.524 231.299 228.255 228.551 228.035C226.408 227.87 224.32 226.524 222.864 224.38C222.286 223.529 221.819 222.594 221.49 221.605C220.555 225.012 219.346 228.282 217.89 231.442C217.176 232.981 216.269 234.739 214.785 236.003C213.686 236.965 212.285 237.487 210.993 237.487Z" fill="#FC9F5B"/>
<path d="M259.6 292.717C257.979 292.717 256.221 291.865 254.462 290.244C252.649 288.54 251.11 286.534 249.928 284.363C249.901 284.968 249.846 285.545 249.791 286.149C249.708 286.809 249.599 287.551 249.186 288.238C248.197 289.831 246.026 290.106 244.488 289.502C242.949 288.87 241.877 287.523 241.136 286.424C237.893 281.671 235.832 275.516 234.871 267.63C234.459 264.278 236.794 261.337 241.63 259.112C245.697 257.243 251.385 255.979 256.88 255.76C259.573 255.65 266.085 255.65 268.421 258.178C269.877 259.744 271.855 262.189 272.515 265.212C273.174 268.317 272.13 271.477 269.904 273.07C269.794 273.153 269.657 273.235 269.52 273.345C267.486 274.774 262.733 278.071 263.942 282.577C264.381 284.226 264.848 286.122 264.519 288.073C264.134 290.299 262.705 292.057 260.864 292.607C260.452 292.634 260.04 292.717 259.6 292.717ZM249.379 278.209C250.285 282.303 252.484 286.15 255.561 289.007C256.798 290.161 258.639 291.425 260.37 290.931C261.771 290.518 262.623 289.035 262.843 287.716C263.117 286.122 262.705 284.418 262.321 282.935C260.782 277.302 266.415 273.4 268.53 271.916C268.668 271.834 268.778 271.724 268.888 271.669C270.564 270.46 271.361 267.932 270.839 265.514C270.399 263.508 269.245 261.53 267.157 259.249C264.519 256.364 250.972 256.584 242.29 260.568C239.404 261.887 236.08 264.14 236.464 267.382C237.399 274.994 239.349 280.901 242.454 285.435C243.086 286.342 243.938 287.441 245.065 287.908C245.944 288.265 247.235 288.155 247.758 287.304C248.005 286.919 248.087 286.369 248.142 285.902C248.417 283.457 248.307 280.984 247.758 278.566C247.758 278.538 247.758 278.511 247.73 278.483C247.62 278.044 247.922 277.604 248.362 277.494C248.802 277.384 249.241 277.686 249.351 278.126C249.379 278.154 249.379 278.181 249.379 278.209Z" fill="#FC9F5B"/>
<path d="M218.713 348.358C218.053 348.358 217.366 348.276 216.707 348.083C215.031 347.589 213.822 346.325 213.574 344.841C213.327 343.275 214.124 341.654 215.91 340.17C217.146 339.126 218.52 338.274 220.004 337.642C219.812 337.615 219.619 337.56 219.427 337.505C218.905 337.367 218.355 337.202 217.888 336.845C216.679 335.884 216.707 334.152 217.339 333.026C217.971 331.899 219.07 331.212 219.977 330.745C223.768 328.767 228.467 327.833 234.347 327.833C239.458 327.833 243.662 329.481 245.64 332.257C246.904 334.015 247.152 336.131 246.382 338.384C244.184 344.759 221.817 348.056 220.883 348.193C220.196 348.276 219.482 348.358 218.713 348.358ZM225.307 337.944C222.285 338.247 219.317 339.483 216.981 341.461C216.24 342.093 215.003 343.33 215.223 344.621C215.388 345.583 216.322 346.297 217.201 346.545C218.3 346.874 219.564 346.737 220.663 346.572C223.136 346.215 228.687 345.198 233.825 343.742C242.535 341.242 244.459 338.988 244.844 337.862C245.448 336.131 245.256 334.592 244.294 333.246C242.645 330.938 238.853 329.536 234.347 329.536C228.742 329.536 224.29 330.443 220.718 332.284C220.031 332.641 219.18 333.136 218.768 333.878C218.465 334.427 218.438 335.252 218.905 335.609C219.125 335.801 219.482 335.884 219.812 335.966C221.57 336.378 223.356 336.516 225.142 336.351C225.17 336.351 225.197 336.351 225.197 336.351C225.637 336.296 226.049 336.625 226.104 337.093C226.159 337.56 225.829 337.944 225.362 337.999C225.335 337.944 225.307 337.944 225.307 337.944Z" fill="#FC9F5B"/>
<path d="M351.869 262.574C350.166 262.574 348.902 262.079 348.077 261.118C346.868 259.716 347.033 257.683 347.72 256.254C342.444 258.837 336.839 260.623 330.986 261.585C329.887 261.777 328.651 261.914 327.524 261.392C325.628 260.486 325.051 258.15 325.491 256.419C325.931 254.633 327.167 253.287 328.321 252.187C328.458 252.05 328.623 251.913 328.761 251.775C327.277 252.325 325.793 252.847 324.309 253.342C319.995 254.77 317.77 253.342 317.193 251.665C316.808 250.539 317.083 249.385 317.44 248.423C319.995 241.197 325.985 236.168 331.783 231.332C334.256 229.244 336.812 227.101 339.065 224.82C339.394 224.49 339.916 224.49 340.219 224.82C340.548 225.15 340.548 225.672 340.219 225.974C337.911 228.31 335.328 230.48 332.827 232.596C326.947 237.515 321.397 242.186 318.979 248.973C318.731 249.687 318.512 250.484 318.731 251.116C318.814 251.363 319.089 252.105 320.545 252.242C321.452 252.325 322.633 252.16 323.787 251.775C327.194 250.649 330.574 249.385 333.899 248.011C335.96 246.802 338.185 245.84 340.466 245.153C340.878 245.016 341.318 245.236 341.483 245.648C341.648 246.06 341.455 246.5 341.071 246.692C338.955 247.681 336.812 248.615 334.641 249.495C332.772 250.594 331.041 251.885 329.448 253.396C328.458 254.331 327.414 255.457 327.085 256.831C326.81 257.93 327.167 259.414 328.211 259.909C328.898 260.238 329.832 260.128 330.712 259.964C337.883 258.782 344.67 256.309 350.935 252.655C351.292 252.435 351.787 252.545 352.034 252.902C352.281 253.259 352.226 253.726 351.897 254.001C350.88 254.88 349.808 255.76 349.231 256.914C348.764 257.82 348.599 259.194 349.314 260.046C349.973 260.843 351.265 261.09 353.133 260.815C356.925 260.266 360.525 258.727 363.547 256.337C363.904 256.062 364.426 256.117 364.701 256.474C364.976 256.831 364.921 257.353 364.564 257.628C361.321 260.211 357.447 261.887 353.353 262.464C352.858 262.546 352.364 262.574 351.869 262.574Z" fill="#FC9F5B"/>
<path d="M383.578 90.5656L430.015 72.7603L437.022 94.1926L448.15 104.909L441.143 131.287L394.706 137.14L393.882 108.701L383.578 90.5656Z" fill="white"/>
<path d="M394.706 137.964C394.514 137.964 394.322 137.882 394.157 137.772C393.992 137.607 393.882 137.415 393.882 137.167L393.058 108.948L382.864 91.0053C382.754 90.7854 382.726 90.5381 382.809 90.3183C382.891 90.0985 383.056 89.9062 383.276 89.8237L429.685 72.0184C429.905 71.936 430.125 71.936 430.344 72.0459C430.537 72.1558 430.702 72.3206 430.784 72.5405L437.736 93.7805L448.727 104.359C448.947 104.579 449.029 104.881 448.947 105.156L441.94 131.534C441.858 131.864 441.583 132.111 441.253 132.139L394.844 137.992C394.789 137.964 394.761 137.964 394.706 137.964ZM384.787 91.0053L394.624 108.316C394.679 108.426 394.734 108.563 394.734 108.701L395.531 136.233L440.511 130.545L447.243 105.184L436.472 94.7971C436.362 94.7147 436.307 94.5773 436.252 94.4674L429.52 73.8594L384.787 91.0053Z" fill="#1A1A1A"/>
<path d="M375.636 380.507C374.784 377.759 372.916 375.506 370.36 374.159C367.805 372.841 364.892 372.566 362.145 373.418C359.397 374.269 357.144 376.138 355.797 378.693C354.478 381.249 354.204 384.161 355.055 386.909C355.907 389.657 357.776 391.91 360.331 393.256C361.925 394.108 363.628 394.493 365.332 394.493C369.206 394.493 372.943 392.404 374.894 388.722C376.213 386.167 376.488 383.255 375.636 380.507Z" fill="#1A1A1A"/>
<path d="M82.9468 162.062L89.349 149.23L97.1251 147.856L101.796 167.2L99.9827 191.93L94.1026 193.029L84.7603 175.251L82.9468 162.062Z" fill="white"/>
<path d="M243.167 165.002L237.864 164.123C238.331 163.051 239.128 162.337 239.156 162.309C239.513 162.007 239.54 161.485 239.238 161.155C238.936 160.798 238.414 160.77 238.084 161.073C238.002 161.128 235.968 162.941 235.913 165.496C235.886 167.063 236.573 168.546 237.974 169.893C238.139 170.03 238.359 170.113 238.551 170.113C238.771 170.113 238.991 170.03 239.128 169.838C239.43 169.508 239.43 168.986 239.101 168.684C238.084 167.75 237.59 166.76 237.535 165.744L242.893 166.65C242.948 166.65 242.975 166.65 243.03 166.65C243.442 166.65 243.772 166.348 243.854 165.964C243.909 165.496 243.607 165.084 243.167 165.002Z" fill="#1A1A1A"/>
<path d="M277.424 137.353C280.795 133.248 282.149 128.789 280.448 127.392C278.748 125.996 274.637 128.191 271.266 132.296C267.895 136.401 266.542 140.86 268.242 142.256C269.943 143.653 274.053 141.457 277.424 137.353Z" fill="white"/>
<path d="M280.976 126.753C278.586 124.775 273.86 127.88 270.645 131.782C267.43 135.711 265.314 140.932 267.732 142.91C268.254 143.322 268.886 143.515 269.573 143.515C272.101 143.515 275.563 140.932 278.064 137.882C281.279 133.952 283.394 128.732 280.976 126.753ZM276.827 136.838C273.365 141.042 269.821 142.47 268.804 141.619C267.787 140.794 268.474 137.03 271.936 132.826C272.266 132.414 272.623 132.029 272.953 131.672C272.403 133.485 272.458 134.969 273.338 135.656C274.382 136.508 276.333 136.013 278.503 134.529C278.036 135.271 277.487 136.041 276.827 136.838Z" fill="#1A1A1A"/>
<path d="M236.41 429.224C197.338 421.723 161.15 411.721 134.524 401.06C121.555 395.867 111.553 390.811 104.794 386.002C97.6223 380.891 94.3799 376.248 95.1493 372.181C95.2043 371.824 95.5615 371.604 95.9187 371.659C96.2759 371.714 96.4957 372.071 96.4407 372.428C95.0669 379.518 109.135 389.492 135.019 399.851C161.562 410.457 197.667 420.431 236.685 427.933C275.648 435.434 312.825 439.556 341.401 439.556C341.429 439.556 341.484 439.556 341.511 439.556C369.401 439.556 386.162 435.489 387.508 428.4C387.563 428.043 387.921 427.823 388.278 427.878C388.635 427.933 388.855 428.29 388.8 428.647C388.003 432.714 383.277 435.846 374.731 437.907C366.681 439.858 355.497 440.847 341.539 440.847C341.429 440.875 341.401 440.875 341.374 440.875" fill="#1A1A1A"/>
<path d="M236.683 427.933C245.585 429.636 254.406 431.175 263.034 432.549C287.186 436.011 306.915 437.88 306.915 437.88L306.228 418.508C306.228 418.508 283.422 423.729 226.818 413.013C170.215 402.296 154.553 388.832 154.553 388.832L143.864 403.231C143.864 403.231 150.871 405.813 162.274 409.468C184.229 416.392 209.755 422.767 236.683 427.933Z" fill="#FC9F5B"/>
<path d="M407.786 158.545L407.566 140.327C407.401 137.607 408.967 136.096 410.259 136.013C411.852 135.931 412.951 137.167 412.841 139.53L412.814 146.922C412.814 148.103 413.748 149.065 414.902 149.147C416.413 149.257 417.403 150.796 416.853 152.225L414.655 157.748C413.886 159.671 411.935 160.908 409.874 160.77C408.692 160.66 407.786 159.699 407.786 158.545Z" fill="white"/>
<path d="M17.9353 155.522L10.1317 157.006L8.9502 157.748L18.2925 204.734L37.4167 200.915L29.1735 156.209C25.629 155.055 21.7546 154.78 17.9353 155.522Z" fill="#FC9F5B"/>
<path d="M57.9159 168.931C57.9159 168.684 57.7785 168.491 57.6136 168.354C57.4213 168.217 57.2014 168.162 56.9816 168.189L52.2006 168.904C48.024 169.536 43.9024 167.777 41.4844 164.287C36.1813 156.704 26.8939 152.939 17.7989 154.698L0.680516 157.94C0.460697 157.995 0.268355 158.105 0.158446 158.297C0.0210588 158.49 -0.0338959 158.71 0.0210588 158.929L9.33588 206.548C9.39084 206.767 9.50075 206.96 9.69309 207.07C9.83048 207.152 9.99534 207.207 10.1602 207.207C10.2152 207.207 10.2701 207.207 10.3251 207.18L18.4034 205.558H18.4309L37.5551 201.739C37.6376 201.712 37.6925 201.684 37.775 201.657C42.0065 200.75 45.7709 198.579 48.6835 195.364L59.1523 183.851C59.3172 183.686 59.3996 183.439 59.3722 183.219L57.9159 168.931ZM30.6308 201.437L18.9255 203.772L9.85795 158.16L10.435 157.83L18.1012 156.374C21.5358 155.687 25.1079 155.879 28.4601 156.869L36.456 200.283L30.6308 201.437ZM1.80709 159.424L8.15436 158.215L17.2768 204.13L10.8197 205.421L1.80709 159.424ZM47.4745 194.265C44.9465 197.068 41.7042 199.019 38.0497 199.926L30.1637 157.473C34.093 159.012 37.5551 161.705 40.0556 165.277C42.8583 169.288 47.5844 171.322 52.3929 170.58L56.3222 169.975L57.6686 183.027L47.4745 194.265Z" fill="#1A1A1A"/>
<path d="M102.567 166.953L97.9234 147.774C97.9234 147.746 97.9234 147.719 97.9234 147.719L96.8793 142.635C96.7968 142.196 96.3572 141.921 95.9176 142.003L88.7185 143.432C88.3063 143.515 88.0316 143.899 88.059 144.311L88.4163 148.021L78.0023 144.311C76.024 143.597 73.8533 144.229 72.5618 145.905C71.6001 147.169 69.8416 147.526 68.4677 146.729C61.8731 142.937 53.2452 138.624 49.6732 139.695C48.9588 139.915 48.3817 140.355 48.0795 140.987C47.8871 141.344 47.7223 141.948 48.0245 142.718C49.9754 148.021 73.3312 158.078 77.2879 159.754L79.8983 166.046C80.0082 166.321 80.283 166.513 80.6127 166.541H80.6402C80.9424 166.541 81.2447 166.376 81.382 166.101L82.3712 164.205L83.9374 175.361C83.9374 175.471 83.9649 175.553 84.0199 175.636L93.3622 193.413C93.527 193.688 93.8018 193.853 94.1041 193.853C94.159 193.853 94.214 193.853 94.2415 193.771L100.094 192.672C100.451 192.617 100.726 192.314 100.754 191.93L102.595 167.2C102.595 167.118 102.595 167.035 102.567 166.953ZM80.7226 163.765L78.6618 158.792C78.5794 158.6 78.4145 158.435 78.2222 158.352C78.1397 158.325 71.3528 155.467 64.4285 152.005C52.4484 146.015 49.948 143.267 49.5358 142.141C49.4259 141.866 49.4808 141.756 49.5083 141.728C49.5633 141.591 49.7007 141.399 50.1128 141.289C50.3601 141.206 50.6624 141.179 50.9921 141.179C53.8223 141.179 59.8673 143.707 67.5884 148.131C69.6767 149.34 72.3695 148.818 73.8258 146.894C74.6776 145.823 76.1339 145.383 77.4253 145.85L88.169 149.669L80.7226 163.765ZM99.1874 191.215L94.5437 192.094L85.5586 175.004L83.8001 162.199L89.8451 150.082L89.9 149.999C91.164 149.779 94.9009 149.12 96.5495 148.818L101.001 167.255L99.1874 191.215Z" fill="#1A1A1A"/>
<path d="M31.1806 187.836C30.9333 187.836 30.6585 187.726 30.4937 187.478L14.6942 164.947C14.4194 164.562 14.5293 164.068 14.8865 163.793C15.2712 163.518 15.7658 163.628 16.0406 163.985L31.8401 186.517C32.1148 186.901 32.0049 187.396 31.6477 187.671C31.5103 187.808 31.3455 187.836 31.1806 187.836Z" fill="#1A1A1A"/>
<path d="M28.0206 197.315C27.7733 197.315 27.4986 197.205 27.3612 196.958L16.9198 182.258C16.645 181.873 16.7549 181.378 17.1121 181.104C17.4968 180.829 17.9914 180.939 18.2662 181.296L28.7076 195.996C28.9823 196.381 28.8724 196.876 28.5152 197.15C28.3504 197.288 28.1855 197.315 28.0206 197.315Z" fill="#1A1A1A"/>
<path d="M285.456 398.202C270.013 398.202 258.638 395.894 258.116 395.784C255.807 395.317 254.324 393.064 254.818 390.756C255.285 388.448 257.539 386.964 259.847 387.458C259.984 387.486 274.162 390.371 291.775 389.574C291.83 389.574 291.913 389.574 291.968 389.574C294.221 389.574 296.117 391.36 296.227 393.641C296.337 396.004 294.523 397.982 292.16 398.092C289.852 398.147 287.599 398.202 285.456 398.202Z" fill="#1A1A1A"/>
<path d="M246.438 393.916C246.218 393.916 245.998 393.888 245.779 393.861L240.475 393.036C238.14 392.679 236.546 390.508 236.931 388.173C237.288 385.837 239.459 384.244 241.794 384.628L247.097 385.453C249.433 385.81 251.027 387.981 250.642 390.316C250.312 392.432 248.499 393.916 246.438 393.916Z" fill="#1A1A1A"/>
<path d="M284.161 156.091C286.963 153.693 287.282 149.468 284.874 146.655C282.466 143.842 278.243 143.506 275.442 145.904C272.64 148.302 272.321 152.526 274.729 155.339C277.137 158.152 281.36 158.489 284.161 156.091Z" fill="white"/>
<path d="M439.081 161.045L425.81 128.347L429.492 116.916C430.151 116.422 432.184 114.828 434.135 113.152C438.916 109.058 439.054 108.041 438.751 107.299C438.642 107.025 438.422 106.805 438.119 106.695C437.13 106.365 435.152 107.299 429.766 110.349C428.722 110.954 427.513 111.613 426.579 112.108C427.129 111.119 427.87 109.772 428.585 108.508C433.833 99.1935 435.124 96.3634 433.613 95.4841C432.212 94.6598 429.876 96.858 423.529 103.837C423.392 104.002 423.227 104.194 423.062 104.359C423.309 103.865 423.529 103.343 423.776 102.848C429.382 90.9503 430.316 88.0377 428.805 87.2134C427.843 86.6913 426.524 86.9936 420.204 95.9512C419.545 96.9129 418.885 97.8746 418.253 98.7814C418.391 97.9296 418.556 96.9953 418.72 96.0611C419.82 89.3017 419.325 88.3125 418.748 87.8454C418.501 87.653 418.171 87.5981 417.869 87.6805C416.797 87.9553 415.67 90.126 411.824 99.3034C411.164 100.87 410.45 102.573 409.928 103.755C409.9 103.672 409.9 103.617 409.873 103.535C409.158 100.457 407.977 95.2643 405.174 94.0003C404.157 93.5607 403.058 93.6431 401.904 94.2476C401.602 94.385 401.437 94.6872 401.465 95.017L403.113 123.429L401.959 169.92C401.959 170.168 402.069 170.415 402.262 170.58C402.426 170.717 402.591 170.772 402.784 170.772C402.839 170.772 402.893 170.745 402.976 170.745L408.471 169.426C409.296 182.367 408.801 196.573 406.96 209.24C404.24 228.007 398.937 241.664 391.985 247.681C386.819 252.187 381.681 252.984 375.361 250.292C371.624 248.698 367.64 246.005 363.106 242.543C362.996 242.268 362.749 242.076 362.447 242.048C359.699 239.933 356.786 237.542 353.599 234.959C347.252 229.793 340.08 223.968 331.59 217.951C318.758 208.883 303.7 202.261 286.857 198.304C281.911 197.15 277.267 196.326 273.09 195.749C273.09 195.721 273.118 195.667 273.118 195.639L276.415 177.504C280.152 175.8 285.016 173.3 289.714 170.113C295.347 166.266 299.634 162.199 302.491 157.968C306.091 152.61 307.382 147.032 306.283 141.371C305.404 136.865 301.942 130.408 294.77 125.709C294.083 125.27 293.396 124.857 292.709 124.473C293.781 123.786 295.292 122.439 296.556 119.774C298.095 116.587 297.106 112.795 295.265 111.778C294.358 111.284 293.012 111.366 291.94 113.097C290.099 116.092 284.274 119.966 282.927 120.818C278.366 119.802 273.805 119.582 269.628 119.774C269.216 119.115 268.557 118.647 267.677 118.373C262.484 116.779 249.845 123.071 244.541 126.369C239.815 129.309 234.1 130.435 230.968 129.034C229.649 128.457 228.824 127.44 228.577 126.011C227.451 119.911 222.724 108.591 212.668 109.388C207.337 109.8 201.759 112.218 197.72 115.872C194.23 119.032 190.136 124.665 190.686 133.513C191.071 139.53 193.379 144.256 197.363 147.196C201.622 150.329 207.117 150.851 210.415 150.027C211.898 149.642 213.602 148.955 215.415 148.241C219.812 146.482 224.785 144.476 227.038 146.867C228.467 148.378 228.962 149.862 229.566 151.565C230.336 153.791 231.187 156.264 234.21 159.067C233.056 160.138 231.929 161.54 231.407 163.243C230.775 165.249 231.05 167.31 232.259 169.398C233.413 171.349 235.062 172.586 237.123 173.053C240.502 173.85 244.184 172.393 246.245 171.349L241.739 195.062C232.232 195.721 218.96 197.233 203.71 201.299C176.645 208.526 152.712 221.303 132.571 239.273C126.966 244.274 122.047 249.028 117.733 253.506C117.596 253.589 117.486 253.699 117.431 253.809C114.546 256.804 111.963 259.661 109.6 262.382C104.077 256.776 99.6258 249.605 96.2461 242.983C95.5042 241.087 94.8448 239.85 94.8173 239.768C94.7349 239.658 94.6524 239.548 94.5425 239.465C90.9979 231.882 88.9646 225.562 88.4975 224.051L90.0088 223.034C90.2835 222.842 90.4209 222.512 90.366 222.182C90.311 221.935 85.42 198.332 84.8705 193.358C84.4858 189.924 84.5957 188.962 84.9529 185.417C85.1178 183.906 85.3101 181.873 85.5574 178.96C85.9421 174.069 85.6124 168.931 84.6232 164.864C84.0187 162.337 82.5899 158.05 80.007 157.693C78.166 157.391 77.2318 158.49 76.4624 159.369C75.9129 160.001 75.4458 160.523 74.6764 160.715C74.0169 160.88 73.6597 160.715 73.0552 160.441C72.2309 160.056 71.1868 159.561 69.1809 159.946C67.6697 160.248 66.7904 161.457 66.076 162.419C65.6638 162.996 65.2242 163.6 64.867 163.683C64.4273 163.793 63.7679 163.6 63.026 163.408C61.9269 163.106 60.5805 162.749 59.0692 163.078C54.0958 164.15 56.5688 176.707 57.1183 179.208C58.2999 184.621 59.6737 193.221 59.8386 194.32L53.2715 245.73C53.244 246.033 53.3814 246.362 53.6562 246.527C53.7936 246.61 53.9585 246.665 54.0958 246.665C54.2607 246.665 54.4256 246.61 54.563 246.527L59.4814 243.257C59.6463 251.061 61.0476 280.599 72.7255 304.724C79.1827 317.996 86.3543 326.734 94.7074 331.405C99.8731 334.317 105.588 335.719 112.348 335.719C114.574 335.719 116.882 335.554 119.272 335.224C134.659 333.356 164.088 315.166 170.298 311.236C170.298 311.264 170.298 311.264 170.298 311.291C169.693 319.26 167.687 339.978 162.549 360.531C157.466 380.974 150.871 395.18 142.958 402.708C142.628 403.011 142.628 403.533 142.93 403.862C143.095 404.027 143.315 404.11 143.535 404.11C143.754 404.11 143.947 404.027 144.084 403.835C147.711 400.373 151.063 395.592 154.113 389.492C154.608 389.822 159.444 393.174 169.968 397.653C188.075 405.401 208.546 410.402 222.532 413.232C250.037 418.81 273.2 420.019 288.148 420.019C296.391 420.019 302.134 419.662 304.744 419.442C305.349 427.933 306.036 437.742 306.063 437.907C306.091 438.347 306.448 438.676 306.888 438.676C306.915 438.676 306.943 438.676 306.943 438.731C307.41 438.704 307.739 438.319 307.712 437.852C307.712 437.687 307.025 427.795 306.393 419.305C306.833 419.222 307.135 418.865 307.08 418.398C307.025 417.958 306.695 417.656 306.283 417.656C305.953 413.232 305.679 409.413 305.514 407.847C305.514 407.764 305.514 407.709 305.514 407.627C305.514 407.599 305.514 407.599 305.486 407.572C303.316 382.76 314.609 356.794 320.764 344.731C322.44 341.983 324.995 337.477 327.523 332.861C332.661 324.123 335.162 319.122 336.014 317.364C342.498 320.441 350.686 323.409 359.781 324.508C362.474 324.893 364.975 325.057 367.31 325.057C370.47 325.057 373.3 324.755 375.828 324.288C376.872 324.123 377.889 323.931 378.933 323.711C398.525 319.397 411.439 301.757 418.803 287.688C427.458 271.202 433.586 250.127 435.646 229.848C438.202 204.542 435.042 177.614 432.871 163.436L438.449 162.089C438.696 162.034 438.889 161.897 438.999 161.677C439.164 161.512 439.164 161.265 439.081 161.045ZM293.341 113.976C293.753 113.289 294.138 113.042 294.468 113.234C295.402 113.757 296.281 116.532 295.045 119.087C293.204 122.879 290.923 123.511 290.923 123.511C290.896 123.511 290.896 123.511 290.868 123.538C288.972 122.632 287.049 121.945 285.098 121.395C287.434 119.774 291.693 116.642 293.341 113.976ZM248.278 169.893C248.333 169.563 248.196 169.233 247.921 169.041C247.646 168.876 247.289 168.849 247.014 169.041C246.959 169.096 241.794 172.393 237.562 171.432C235.941 171.047 234.677 170.113 233.743 168.546C232.781 166.898 232.534 165.277 233.028 163.738C233.523 162.172 234.677 160.853 235.804 159.891C235.886 159.864 235.941 159.836 235.996 159.809L238.661 158.05C239.183 157.885 242.151 157.088 243.332 159.259C244.129 160.743 246.08 164.315 249.515 164.315C250.202 164.315 250.971 164.177 251.741 163.82C256.164 162.007 255.34 157.446 254.131 153.654C252.208 147.609 252.29 142.828 254.406 139.393C255.422 137.744 258.005 135.464 260.753 133.046C265.397 128.979 270.15 124.775 270.123 121.423C277.652 121.148 286.444 122.247 293.891 127.111C296.941 129.116 299.276 131.452 301.007 133.788L289.247 143.102L290.264 144.394L301.942 135.161C303.425 137.497 304.332 139.805 304.689 141.701C305.679 146.894 304.497 152.06 301.145 157.033C298.425 161.1 294.275 165.029 288.835 168.739C283.367 172.476 277.652 175.223 273.86 176.872L269.271 178.686C268.941 178.823 268.749 179.125 268.749 179.482C268.776 179.84 268.996 180.142 269.326 180.252C269.354 180.252 270.453 180.636 271.359 182.23C272.211 183.714 273.008 186.572 272.101 191.71L272.019 192.149C271.991 192.259 271.991 192.342 272.019 192.452L271.497 195.337C271.497 195.419 271.497 195.474 271.497 195.529C262.429 194.403 255.587 194.43 252.372 194.54L251.85 194.567C249.652 194.65 246.85 194.732 243.525 194.952L248.278 169.893ZM119.135 333.63C104.187 335.471 88.3601 333.136 74.2367 304.01C62.0643 278.95 61.185 247.819 61.13 242.213L87.0962 225.012C87.8106 227.266 90.0362 233.888 93.7732 241.581C94.2952 242.873 94.8173 244.082 95.3394 245.236C96.8781 249.66 98.2794 256.282 95.5867 261.2C94.6249 262.959 93.6632 264.662 92.7565 266.311C84.5133 281.066 78.5507 291.755 86.8489 299.201C86.9588 299.339 87.0962 299.449 87.2885 299.503C87.3709 299.531 87.4259 299.531 87.5083 299.531C87.5633 299.531 87.5907 299.531 87.6457 299.531C87.9754 299.476 88.2502 299.256 88.3601 298.954C88.3601 298.926 88.7723 297.498 89.8988 294.832C89.9538 294.695 90.0088 294.558 90.0637 294.42C90.0637 294.393 90.0637 294.393 90.0912 294.365C90.1736 294.2 90.2286 294.035 90.311 293.871C90.3385 293.816 90.366 293.733 90.3934 293.678C90.4209 293.623 90.4484 293.568 90.4759 293.513C91.7124 290.848 93.5808 287.249 96.3285 282.88C100.368 276.477 106.962 267.41 117.294 256.474C117.321 259.634 117.706 265.899 119.877 274.499C122.789 285.847 129.576 303.598 145.321 323.684C136.006 328.465 126.004 332.806 119.135 333.63ZM146.859 322.887C131.17 302.966 124.438 285.435 121.553 274.197C118.805 263.536 118.915 256.391 118.997 254.688C121.251 252.352 123.669 249.934 126.279 247.434C126.306 250.621 126.719 257.381 129.191 266.778C132.324 278.676 139.578 297.168 156.229 317.776C153.317 319.425 150.157 321.183 146.859 322.887ZM222.917 411.639C174.776 401.912 155.267 388.283 155.075 388.145C155.02 388.09 154.938 388.063 154.883 388.035C156.202 385.26 157.466 382.265 158.675 378.995C158.812 379.133 161.89 381.826 171.314 386.03C186.921 392.981 207.612 398.559 222.23 402.021C248.718 408.286 269.738 409.743 282.735 409.88C283.394 409.88 284.054 409.88 284.686 409.88C294.99 409.88 301.639 409.083 303.975 408.726C304.14 410.594 304.387 413.974 304.662 417.793C297.408 418.398 265.397 420.239 222.917 411.639ZM334.695 314.918C323.182 309.066 315.653 302.196 315.57 302.141C315.57 302.141 315.57 302.141 315.543 302.114C315.268 301.867 314.883 301.812 314.554 302.031C314.224 302.251 314.087 302.691 314.251 303.076C314.334 303.268 322.879 322.227 318.978 337.147C316.34 347.259 314.471 352.617 312.52 358.278C311.943 359.926 311.366 361.63 310.762 363.471C308.261 370.56 306.393 377.704 305.184 384.848C303.343 395.702 303.563 403.588 303.838 407.105C301.557 407.435 294.221 408.341 282.68 408.231C269.793 408.094 248.91 406.638 222.615 400.428C172.441 388.585 159.884 377.896 159.774 377.786C159.609 377.649 159.389 377.594 159.169 377.594C160.955 372.593 162.631 367.015 164.17 360.915C169.336 340.252 171.342 319.425 171.974 311.429C172.111 309.67 172.303 307.857 172.523 305.961L175.353 288.21V288.183L175.518 286.809C179.585 265.322 185.465 244.301 185.548 243.999C185.657 243.56 185.41 243.092 184.971 242.983C184.531 242.873 184.064 243.12 183.954 243.56C183.899 243.807 179.612 259.139 175.821 276.999C175.656 276.999 175.491 277.054 175.326 277.192C175.189 277.302 172.111 279.802 169.116 283.814C165.104 289.172 163.291 294.612 163.84 299.531C164.857 308.708 159.169 314.698 157.246 316.402C141.007 296.179 133.918 278.071 130.813 266.421C127.79 255.045 127.9 247.406 127.982 245.84C129.823 244.109 131.719 242.351 133.725 240.565C153.646 222.759 177.359 210.092 204.177 202.948C225.829 197.15 243.442 196.573 251.933 196.271L252.455 196.244C257.236 196.079 270.095 196.106 286.499 199.953C289.082 200.558 291.61 201.244 294.111 201.959C280.427 205.036 265.534 205.778 267.265 213.609C269.903 225.672 294.056 210.477 320.874 215.67C323.924 216.165 327.853 218.445 330.463 219.215C330.518 219.27 330.601 219.297 330.656 219.352C339.091 225.342 346.263 231.14 352.555 236.278C355.825 238.916 358.82 241.361 361.65 243.532C362.309 246.197 365.579 260.568 362.254 276.587C357.473 299.394 345.741 316.072 343.68 318.875C340.382 317.639 337.36 316.265 334.695 314.918ZM354.891 322.09C351.511 321.403 348.296 320.496 345.301 319.452C348.104 315.578 359.232 299.119 363.848 276.945C366.761 262.986 364.755 250.264 363.683 245.098C366.349 247.077 368.849 248.78 371.24 250.127C372.174 257.463 372.943 268.317 371.349 278.786C367.365 304.807 356.512 319.947 354.891 322.09ZM434.108 229.738C432.074 249.797 426.002 270.68 417.456 286.974C412.703 296.069 407.647 302.883 402.646 308.021C401.794 307.005 400.695 306.318 399.321 306.016C395.667 305.219 390.776 307.307 387.698 309.368C385.665 310.714 383.577 311.154 381.763 310.577C379.895 309.972 378.411 308.351 377.395 305.713C375.251 300.273 370.415 298.981 368.299 298.679C370.14 293.129 371.872 286.534 373.026 279.033C374.564 268.921 373.96 258.48 373.081 251.061C373.63 251.336 374.18 251.583 374.729 251.83C378.219 253.314 381.379 253.836 384.374 253.342C398.799 257.271 406.081 265.019 409.818 257.903C412.511 252.71 403.993 249.687 396.024 245.868C400.585 240.207 405.696 229.546 408.609 209.488C410.45 196.601 410.972 182.148 410.12 169.013L431.333 163.875C433.531 177.999 436.636 204.679 434.108 229.738Z" fill="#1A1A1A"/>
<path d="M424.382 298.432C424.245 298.432 424.08 298.404 423.943 298.294C423.558 298.047 423.448 297.553 423.696 297.168C434.686 279.692 439.138 260.76 440.951 247.928C442.902 234.025 442.27 224.106 442.27 224.023C442.243 223.556 442.572 223.171 443.04 223.144C443.507 223.116 443.891 223.446 443.919 223.913C443.919 224.023 444.578 234.052 442.6 248.121C440.759 261.118 436.253 280.324 425.097 298.047C424.932 298.294 424.657 298.432 424.382 298.432Z" fill="#1A1A1A"/>
<path d="M86.4098 344.594C86.2449 344.594 86.1075 344.539 85.9701 344.456C71.5995 335.279 61.9549 319.177 56.4045 307.28C50.3869 294.448 47.7216 283.594 47.6942 283.484C47.5842 283.045 47.859 282.605 48.2987 282.495C48.7383 282.385 49.1779 282.66 49.2878 283.1C49.3153 283.209 51.9532 293.898 57.9157 306.62C63.3837 318.298 72.8359 334.097 86.8494 343.055C87.2341 343.302 87.344 343.797 87.0967 344.182C86.9593 344.484 86.6845 344.594 86.4098 344.594Z" fill="#1A1A1A"/>
<path d="M64.0699 228.365C63.96 228.365 63.85 228.365 63.7127 228.337C62.2014 228.145 61.1298 226.771 61.3221 225.26L62.9708 212.263C63.1631 210.752 64.537 209.68 66.0482 209.872C67.5595 210.065 68.6311 211.439 68.4388 212.95L66.7901 225.947C66.6253 227.348 65.4437 228.365 64.0699 228.365Z" fill="white"/>
<path d="M66.3514 206.877C66.159 206.877 65.9941 206.85 65.8018 206.822C64.318 206.52 63.3563 205.064 63.6586 203.58L63.8509 202.701C64.1532 201.217 65.6095 200.255 67.0932 200.558C68.577 200.86 69.5387 202.316 69.2365 203.8L69.0441 204.679C68.7968 205.971 67.6428 206.877 66.3514 206.877Z" fill="white"/>
</svg>
